<?xml version="1.0" encoding="UTF-8" standalone="no"?>
<!-- Created with Inkscape (http://www.inkscape.org/) -->

<svg
   xmlns:dc="http://purl.org/dc/elements/1.1/"
   xmlns:cc="http://creativecommons.org/ns#"
   xmlns:rdf="http://www.w3.org/1999/02/22-rdf-syntax-ns#"
   xmlns:svg="http://www.w3.org/2000/svg"
   xmlns="http://www.w3.org/2000/svg"
   xmlns:sodipodi="http://sodipodi.sourceforge.net/DTD/sodipodi-0.dtd"
   xmlns:inkscape="http://www.inkscape.org/namespaces/inkscape"
   width="32"
   height="32"
   viewBox="0 0 32.000001 32"
   version="1.1"
   id="svg5216"
   inkscape:version="0.92.4 (5da689c313, 2019-01-14)"
   sodipodi:docname="jewellery_32.svg">
  <defs
     id="defs5210" />
  <sodipodi:namedview
     id="base"
     pagecolor="#ffffff"
     bordercolor="#666666"
     borderopacity="1.0"
     inkscape:pageopacity="0.0"
     inkscape:pageshadow="2"
     inkscape:zoom="5.6"
     inkscape:cx="-64.226022"
     inkscape:cy="32.017857"
     inkscape:document-units="px"
     inkscape:current-layer="layer1"
     showgrid="false"
     inkscape:window-width="1920"
     inkscape:window-height="1016"
     inkscape:window-x="0"
     inkscape:window-y="27"
     inkscape:window-maximized="1"
     scale-x="0.8"
     fit-margin-top="0"
     fit-margin-left="0"
     fit-margin-right="0"
     fit-margin-bottom="0"
     units="px" />
  <metadata
     id="metadata5213">
    <rdf:RDF>
      <cc:Work
         rdf:about="">
        <dc:format>image/svg+xml</dc:format>
        <dc:type
           rdf:resource="http://purl.org/dc/dcmitype/StillImage" />
        <dc:title></dc:title>
      </cc:Work>
    </rdf:RDF>
  </metadata>
  <g
     inkscape:label="Layer 1"
     inkscape:groupmode="layer"
     id="layer1"
     transform="translate(-81.838892,-94.08138)">
    <g
       id="g4646"
       transform="matrix(1.9785852,0,0,1.9785852,82.01021,94.252698)">
      <rect
         style="visibility:hidden;fill:none;stroke:none"
         id="canvas-6"
         y="0"
         x="0"
         height="16"
         width="16" />
      <path
         transform="translate(1,1)"
         style="fill:#ac39ac"
         id="jewellery"
         d="m 5.5001761,-0.03125 -1.5000755,2 h 6.0003024 l -1.500076,-2 z m -1.5000755,3 3.000151,2.75 3.0001514,-2.75 z m -0.1250063,2.125 C 2.7594552,6.0221898 2,7.4228958 2,8.96875 2,11.716935 4.3397727,14 6.969,14 9.598227,14 11.938,11.716935 11.938,8.96875 11.938,7.4345438 11.195755,6.0534671 10.094157,5.125 L 8.9691006,6.15625 c 0.9205844,0.6728387 1.5625784,1.7640005 1.5625784,2.8125 0,1.711475 -1.7320219,3.46875 -3.562679,3.46875 -1.8306571,0 -3.5314277,-1.757275 -3.5314277,-3.46875 0,-1.0559982 0.6627104,-2.1406148 1.5938302,-2.8125 z"
         inkscape:connector-curvature="0" />
    </g>
  </g>
</svg>
